<?xml version="1.0" encoding="UTF-8"?>
<svg width="98px" height="98px" viewBox="0 0 98 98" version="1.1" xmlns="http://www.w3.org/2000/svg" xmlns:xlink="http://www.w3.org/1999/xlink">
    <title>Artboard Copy 22</title>
    <g id="Artboard-Copy-22" stroke="none" stroke-width="1" fill="none" fill-rule="evenodd">
        <path d="M49,0 C76.0619527,0 98,21.9380473 98,49 C98,76.0619527 76.0619527,98 49,98 C21.9380473,98 0,76.0619527 0,49 C0,21.9380473 21.9380473,0 49,0 Z M46.1630859,23.1220703 C41.8974609,23.1220703 38.175293,24.8959961 34.996582,28.4438477 C31.8178711,31.9916992 30.2285156,36.1445312 30.2285156,40.9023438 C30.2285156,41.5585938 30.3105469,42.5839844 30.4746094,43.9785156 L30.4746094,43.9785156 L37.6728516,37.7646484 C37.0166016,36.4931641 36.6884766,35.2421875 36.6884766,34.0117188 C36.6884766,30.7714844 38.1240234,29.1513672 40.9951172,29.1513672 C41.8564453,29.1513672 42.8613281,29.3154297 44.0097656,29.6435547 L44.0097656,29.6435547 L45.8554688,30.2587891 L48.0703125,30.8740234 C52.9921875,32.2685547 56.8886719,32.9658203 59.7597656,32.9658203 C60.1289062,32.9658203 60.7236328,32.9248047 61.5439453,32.8427734 C60.9287109,33.6220703 60.4570312,34.1962891 60.1289062,34.5654297 L60.1289062,34.5654297 L55.3916016,40.8408203 L49.8544922,47.9775391 C47.8857422,50.5615234 46.4501953,52.4072266 45.5478516,53.5146484 L45.5478516,53.5146484 L42.7177734,56.9599609 C42.0205078,57.7802734 41.015625,59.03125 39.703125,60.7128906 L39.703125,60.7128906 L35.765625,65.5732422 C33.5917969,68.3623047 31.3359375,70.9873047 28.9980469,73.4482422 L28.9980469,73.4482422 L23.8916016,83.2919922 C28.4443359,82.4306641 33.6943359,82 39.6416016,82 C42.5126953,82 45.4453125,82.1230469 48.4394531,82.3691406 L48.4394531,82.3691406 L52.0693359,82.6152344 C53.2177734,82.6972656 54.5507812,82.8203125 56.0683594,82.984375 C57.8730469,83.1894531 59.3701172,83.2919922 60.5595703,83.2919922 C63.1435547,83.2919922 65.6044922,82.3178711 67.9423828,80.3696289 C70.2802734,78.4213867 71.4492188,76.3808594 71.4492188,74.2480469 C71.4492188,73.7148438 71.1005859,73.1201172 70.4033203,72.4638672 C68.6396484,74.8427734 65.8505859,76.0322266 62.0361328,76.0322266 C60.5185547,76.0322266 59.0214844,75.9296875 57.5449219,75.7246094 L57.5449219,75.7246094 L53.7919922,75.2324219 L49.7929688,74.6787109 C46.5527344,74.2275391 43.6201172,74.0019531 40.9951172,74.0019531 C39.5185547,74.0019531 37.6523438,74.125 35.3964844,74.3710938 C36.5859375,72.9355469 37.3447266,71.9921875 37.6728516,71.5410156 L37.6728516,71.5410156 L40.6259766,67.2958984 C40.9130859,66.8857422 42.2460938,65.2246094 44.625,62.3125 L44.625,62.3125 L47.2089844,59.1748047 L50.0390625,55.6679688 L54.3457031,50.3154297 L59.2060547,44.2246094 C62.3642578,40.328125 65.4609375,36.6982422 68.4960938,33.3349609 L68.4960938,33.3349609 L73.8486328,23.4912109 C70.4443359,24.8447266 67.2246094,25.5214844 64.1894531,25.5214844 C62.8359375,25.5214844 60.4570312,25.234375 57.0527344,24.6601562 L57.0527344,24.6601562 L54.0996094,24.2294922 L50.53125,23.6142578 C48.7675781,23.2861328 47.3115234,23.1220703 46.1630859,23.1220703 Z M62.4769709,12.6556132 C61.1822018,15.705898 62.6053285,19.2282601 65.6556132,20.5230291 C68.705898,21.8177982 72.2282601,20.3946715 73.5230291,17.3443868 C74.8177982,14.294102 73.3946715,10.7717399 70.3443868,9.47697088 C67.294102,8.18220182 63.7717399,9.60532847 62.4769709,12.6556132 Z" id="Combined-Shape" fill="#B50F07"></path>
    </g>
</svg>