<?xml version="1.0" encoding="UTF-8"?>
<svg width="109px" height="108px" viewBox="0 0 109 108" version="1.1" xmlns="http://www.w3.org/2000/svg" xmlns:xlink="http://www.w3.org/1999/xlink">
    <title>Artboard Copy 25</title>
    <defs>
        <path d="M55,5 C82.0619527,5 104,26.9380473 104,54 C104,81.0619527 82.0619527,103 55,103 C27.9380473,103 6,81.0619527 6,54 C6,26.9380473 27.9380473,5 55,5 Z M52.1630859,28.1220703 C47.8974609,28.1220703 44.175293,29.8959961 40.996582,33.4438477 C37.8178711,36.9916992 36.2285156,41.1445312 36.2285156,45.9023438 C36.2285156,46.5585938 36.3105469,47.5839844 36.4746094,48.9785156 L36.4746094,48.9785156 L43.6728516,42.7646484 C43.0166016,41.4931641 42.6884766,40.2421875 42.6884766,39.0117188 C42.6884766,35.7714844 44.1240234,34.1513672 46.9951172,34.1513672 C47.8564453,34.1513672 48.8613281,34.3154297 50.0097656,34.6435547 L50.0097656,34.6435547 L51.8554688,35.2587891 L54.0703125,35.8740234 C58.9921875,37.2685547 62.8886719,37.9658203 65.7597656,37.9658203 C66.1289062,37.9658203 66.7236328,37.9248047 67.5439453,37.8427734 C66.9287109,38.6220703 66.4570312,39.1962891 66.1289062,39.5654297 L66.1289062,39.5654297 L61.3916016,45.8408203 L55.8544922,52.9775391 C53.8857422,55.5615234 52.4501953,57.4072266 51.5478516,58.5146484 L51.5478516,58.5146484 L48.7177734,61.9599609 C48.0205078,62.7802734 47.015625,64.03125 45.703125,65.7128906 L45.703125,65.7128906 L41.765625,70.5732422 C39.5917969,73.3623047 37.3359375,75.9873047 34.9980469,78.4482422 L34.9980469,78.4482422 L29.8916016,88.2919922 C34.4443359,87.4306641 39.6943359,87 45.6416016,87 C48.5126953,87 51.4453125,87.1230469 54.4394531,87.3691406 L54.4394531,87.3691406 L58.0693359,87.6152344 C59.2177734,87.6972656 60.5507812,87.8203125 62.0683594,87.984375 C63.8730469,88.1894531 65.3701172,88.2919922 66.5595703,88.2919922 C69.1435547,88.2919922 71.6044922,87.3178711 73.9423828,85.3696289 C76.2802734,83.4213867 77.4492188,81.3808594 77.4492188,79.2480469 C77.4492188,78.7148438 77.1005859,78.1201172 76.4033203,77.4638672 C74.6396484,79.8427734 71.8505859,81.0322266 68.0361328,81.0322266 C66.5185547,81.0322266 65.0214844,80.9296875 63.5449219,80.7246094 L63.5449219,80.7246094 L59.7919922,80.2324219 L55.7929688,79.6787109 C52.5527344,79.2275391 49.6201172,79.0019531 46.9951172,79.0019531 C45.5185547,79.0019531 43.6523438,79.125 41.3964844,79.3710938 C42.5859375,77.9355469 43.3447266,76.9921875 43.6728516,76.5410156 L43.6728516,76.5410156 L46.6259766,72.2958984 C46.9130859,71.8857422 48.2460938,70.2246094 50.625,67.3125 L50.625,67.3125 L53.2089844,64.1748047 L56.0390625,60.6679688 L60.3457031,55.3154297 L65.2060547,49.2246094 C68.3642578,45.328125 71.4609375,41.6982422 74.4960938,38.3349609 L74.4960938,38.3349609 L79.8486328,28.4912109 C76.4443359,29.8447266 73.2246094,30.5214844 70.1894531,30.5214844 C68.8359375,30.5214844 66.4570312,30.234375 63.0527344,29.6601562 L63.0527344,29.6601562 L60.0996094,29.2294922 L56.53125,28.6142578 C54.7675781,28.2861328 53.3115234,28.1220703 52.1630859,28.1220703 Z M68.4769709,17.6556132 C67.1822018,20.705898 68.6053285,24.2282601 71.6556132,25.5230291 C74.705898,26.8177982 78.2282601,25.3946715 79.5230291,22.3443868 C80.8177982,19.294102 79.3946715,15.7717399 76.3443868,14.4769709 C73.294102,13.1822018 69.7717399,14.6053285 68.4769709,17.6556132 Z" id="path-1"></path>
        <filter x="-8.7%" y="-8.7%" width="119.4%" height="119.4%" filterUnits="objectBoundingBox" id="filter-2">
            <feOffset dx="1" dy="1" in="SourceAlpha" result="shadowOffsetOuter1"></feOffset>
            <feGaussianBlur stdDeviation="3" in="shadowOffsetOuter1" result="shadowBlurOuter1"></feGaussianBlur>
            <feColorMatrix values="0 0 0 0 0.513530344   0 0 0 0 0.513530344   0 0 0 0 0.513530344  0 0 0 0.700229458 0" type="matrix" in="shadowBlurOuter1"></feColorMatrix>
        </filter>
    </defs>
    <g id="Artboard-Copy-25" stroke="none" stroke-width="1" fill="none" fill-rule="evenodd">
        <g id="Combined-Shape">
            <use fill="black" fill-opacity="1" filter="url(#filter-2)" xlink:href="#path-1"></use>
            <use fill="#FFFFFF" fill-rule="evenodd" xlink:href="#path-1"></use>
        </g>
    </g>
</svg>