<?xml version="1.0" encoding="UTF-8"?>
<svg width="149px" height="99px" viewBox="0 0 149 99" version="1.1" xmlns="http://www.w3.org/2000/svg" xmlns:xlink="http://www.w3.org/1999/xlink">
    <title>Group 3</title>
    <defs>
        <path d="M2.052,2.556 C2.052,3.252 2.304,3.852 2.808,4.356 C3.312,4.86 3.912,5.112 4.608,5.112 C5.304,5.112 5.904,4.86 6.408,4.356 C6.912,3.852 7.164,3.252 7.164,2.556 C7.164,1.86 6.912,1.26 6.408,0.756 C5.904,0.252 5.304,0 4.608,0 C3.912,0 3.312,0.252 2.808,0.756 C2.304,1.26 2.052,1.86 2.052,2.556 Z M0,10.296 L0,10.8 L2.412,10.8 L2.412,25.236 L0,25.236 L0,25.74 L9.216,25.74 L9.216,25.236 L6.804,25.236 L6.804,10.296 L0,10.296 Z" id="path-1"></path>
        <filter x="-65.1%" y="-23.3%" width="230.2%" height="146.6%" filterUnits="objectBoundingBox" id="filter-2">
            <feOffset dx="0" dy="0" in="SourceAlpha" result="shadowOffsetOuter1"></feOffset>
            <feGaussianBlur stdDeviation="2" in="shadowOffsetOuter1" result="shadowBlurOuter1"></feGaussianBlur>
            <feColorMatrix values="0 0 0 0 0   0 0 0 0 0   0 0 0 0 0  0 0 0 0.14896078 0" type="matrix" in="shadowBlurOuter1"></feColorMatrix>
        </filter>
        <path d="M11.556,25.236 L11.556,25.74 L20.592,25.74 L20.592,25.236 L18.324,25.236 L18.324,17.532 C18.324,16.428 18.444,15.468 18.684,14.652 C18.924,13.836 19.242,13.152 19.638,12.6 C20.034,12.048 20.496,11.634 21.024,11.358 C21.552,11.082 22.104,10.944 22.68,10.944 C23.376,10.944 23.928,11.178 24.336,11.646 C24.744,12.114 24.948,12.852 24.948,13.86 L24.948,25.236 L22.716,25.236 L22.716,25.74 L31.752,25.74 L31.752,25.236 L29.34,25.236 L29.34,15.084 C29.34,13.5 28.902,12.252 28.026,11.34 C27.15,10.428 25.92,9.972 24.336,9.972 C23.256,9.972 22.356,10.134 21.636,10.458 C20.916,10.782 20.328,11.16 19.872,11.592 C19.416,12.024 19.068,12.462 18.828,12.906 C18.588,13.35 18.42,13.68 18.324,13.896 L18.252,13.896 L18.252,10.296 L11.556,10.296 L11.556,10.8 L13.932,10.8 L13.932,25.236 L11.556,25.236 Z" id="path-3"></path>
        <filter x="-29.7%" y="-38.1%" width="159.4%" height="176.1%" filterUnits="objectBoundingBox" id="filter-4">
            <feOffset dx="0" dy="0" in="SourceAlpha" result="shadowOffsetOuter1"></feOffset>
            <feGaussianBlur stdDeviation="2" in="shadowOffsetOuter1" result="shadowBlurOuter1"></feGaussianBlur>
            <feColorMatrix values="0 0 0 0 0   0 0 0 0 0   0 0 0 0 0  0 0 0 0.14896078 0" type="matrix" in="shadowBlurOuter1"></feColorMatrix>
        </filter>
        <path d="M34.236,25.236 L34.236,25.74 L43.272,25.74 L43.272,25.236 L41.004,25.236 L41.004,17.532 C41.004,16.428 41.124,15.468 41.364,14.652 C41.604,13.836 41.922,13.152 42.318,12.6 C42.714,12.048 43.176,11.634 43.704,11.358 C44.232,11.082 44.784,10.944 45.36,10.944 C46.056,10.944 46.608,11.178 47.016,11.646 C47.424,12.114 47.628,12.852 47.628,13.86 L47.628,25.236 L45.396,25.236 L45.396,25.74 L54.432,25.74 L54.432,25.236 L52.02,25.236 L52.02,15.084 C52.02,13.5 51.582,12.252 50.706,11.34 C49.83,10.428 48.6,9.972 47.016,9.972 C45.936,9.972 45.036,10.134 44.316,10.458 C43.596,10.782 43.008,11.16 42.552,11.592 C42.096,12.024 41.748,12.462 41.508,12.906 C41.268,13.35 41.1,13.68 41.004,13.896 L40.932,13.896 L40.932,10.296 L34.236,10.296 L34.236,10.8 L36.612,10.8 L36.612,25.236 L34.236,25.236 Z" id="path-5"></path>
        <filter x="-29.7%" y="-38.1%" width="159.4%" height="176.1%" filterUnits="objectBoundingBox" id="filter-6">
            <feOffset dx="0" dy="0" in="SourceAlpha" result="shadowOffsetOuter1"></feOffset>
            <feGaussianBlur stdDeviation="2" in="shadowOffsetOuter1" result="shadowBlurOuter1"></feGaussianBlur>
            <feColorMatrix values="0 0 0 0 0   0 0 0 0 0   0 0 0 0 0  0 0 0 0.14896078 0" type="matrix" in="shadowBlurOuter1"></feColorMatrix>
        </filter>
        <path d="M66.384,16.812 L66.384,21.564 C66.384,22.26 66.312,22.854 66.168,23.346 C66.024,23.838 65.832,24.234 65.592,24.534 C65.352,24.834 65.082,25.056 64.782,25.2 C64.482,25.344 64.176,25.416 63.864,25.416 C63.312,25.416 62.88,25.29 62.568,25.038 C62.256,24.786 62.022,24.48 61.866,24.12 C61.71,23.76 61.614,23.388 61.578,23.004 C61.542,22.62 61.524,22.284 61.524,21.996 C61.524,21.276 61.638,20.688 61.866,20.232 C62.094,19.776 62.388,19.392 62.748,19.08 C63.108,18.768 63.516,18.51 63.972,18.306 C64.428,18.102 64.884,17.892 65.34,17.676 C65.676,17.508 65.91,17.358 66.042,17.226 C66.174,17.094 66.264,16.956 66.312,16.812 L66.384,16.812 Z M73.656,25.164 L73.332,24.84 C73.14,25.056 72.942,25.224 72.738,25.344 C72.534,25.464 72.276,25.524 71.964,25.524 C71.436,25.524 71.106,25.35 70.974,25.002 C70.842,24.654 70.776,24.252 70.776,23.796 L70.776,14.868 C70.776,13.86 70.602,13.026 70.254,12.366 C69.906,11.706 69.438,11.184 68.85,10.8 C68.262,10.416 67.566,10.152 66.762,10.008 C65.958,9.864 65.1,9.792 64.188,9.792 C63.396,9.792 62.634,9.876 61.902,10.044 C61.17,10.212 60.516,10.458 59.94,10.782 C59.364,11.106 58.902,11.514 58.554,12.006 C58.206,12.498 58.032,13.056 58.032,13.68 C58.032,14.088 58.098,14.412 58.23,14.652 C58.362,14.892 58.524,15.078 58.716,15.21 C58.908,15.342 59.13,15.426 59.382,15.462 C59.634,15.498 59.88,15.516 60.12,15.516 C60.288,15.516 60.498,15.51 60.75,15.498 C61.002,15.486 61.242,15.432 61.47,15.336 C61.698,15.24 61.896,15.09 62.064,14.886 C62.232,14.682 62.316,14.4 62.316,14.04 C62.316,13.968 62.304,13.836 62.28,13.644 C62.256,13.452 62.232,13.248 62.208,13.032 C62.184,12.816 62.16,12.618 62.136,12.438 C62.112,12.258 62.1,12.132 62.1,12.06 C62.1,11.388 62.304,10.926 62.712,10.674 C63.12,10.422 63.6,10.296 64.152,10.296 C65.016,10.296 65.604,10.56 65.916,11.088 C66.228,11.616 66.384,12.204 66.384,12.852 L66.384,15.048 C66.384,15.504 66.318,15.876 66.186,16.164 C66.054,16.452 65.82,16.71 65.484,16.938 C65.148,17.166 64.674,17.382 64.062,17.586 C63.45,17.79 62.652,18.036 61.668,18.324 C61.068,18.516 60.486,18.714 59.922,18.918 C59.358,19.122 58.854,19.386 58.41,19.71 C57.966,20.034 57.606,20.43 57.33,20.898 C57.054,21.366 56.916,21.948 56.916,22.644 C56.916,23.316 57.072,23.886 57.384,24.354 C57.696,24.822 58.104,25.188 58.608,25.452 C59.112,25.716 59.664,25.908 60.264,26.028 C60.864,26.148 61.452,26.208 62.028,26.208 C63.3,26.208 64.272,26.04 64.944,25.704 C65.616,25.368 66.144,24.72 66.528,23.76 L66.6,23.76 C66.744,24.528 67.11,25.128 67.698,25.56 C68.286,25.992 69.192,26.208 70.416,26.208 C70.968,26.208 71.562,26.16 72.198,26.064 C72.834,25.968 73.32,25.668 73.656,25.164 Z" id="path-7"></path>
        <filter x="-35.8%" y="-36.5%" width="171.7%" height="173.1%" filterUnits="objectBoundingBox" id="filter-8">
            <feOffset dx="0" dy="0" in="SourceAlpha" result="shadowOffsetOuter1"></feOffset>
            <feGaussianBlur stdDeviation="2" in="shadowOffsetOuter1" result="shadowBlurOuter1"></feGaussianBlur>
            <feColorMatrix values="0 0 0 0 0   0 0 0 0 0   0 0 0 0 0  0 0 0 0.14896078 0" type="matrix" in="shadowBlurOuter1"></feColorMatrix>
        </filter>
    </defs>
    <g id="test" stroke="none" stroke-width="1" fill="none" fill-rule="evenodd">
        <g id="Artboard-Copy-40" transform="translate(-63, -132)" fill-rule="nonzero">
            <g id="Group-3" transform="translate(63.2218, 132.6)">
                <g id="zolin" fill="#FFBDB3" opacity="0.701873894">
                    <path d="M69.3381818,85.44 C69.0181818,87.04 68.2781818,88.58 67.1181818,90.06 C65.9581818,91.54 64.4981818,92.86 62.7381818,94.02 C60.9781818,95.18 58.9381818,96.12 56.6181818,96.84 C54.2981818,97.56 51.8181818,97.92 49.1781818,97.92 C45.7381818,97.92 42.2981818,97.44 38.8581818,96.48 C35.4181818,95.52 31.9581818,94.18 28.4781818,92.46 C24.9981818,90.74 21.4581818,88.7 17.8581818,86.34 C14.2581818,83.98 10.4981818,81.44 6.57818182,78.72 C6.25818182,78.56 6.01818182,78.46 5.85818182,78.42 C5.69818182,78.38 5.41818182,78.48 5.01818182,78.72 C4.37818182,79.12 3.79818182,79.48 3.27818182,79.8 C2.75818182,80.12 2.13818182,80.52 1.41818182,81 C0.778181818,81.4 0.338181818,81.36 0.0981818182,80.88 C-0.141818182,80.4 0.0581818182,80 0.698181818,79.68 C4.37818182,77.92 7.85818182,76.02 11.1381818,73.98 C14.4181818,71.94 17.2781818,70.02 19.7181818,68.22 C22.1581818,66.42 24.0981818,64.9 25.5381818,63.66 C26.9781818,62.42 27.6981818,61.72 27.6981818,61.56 C27.6981818,61.24 27.5381818,61.08 27.2181818,61.08 C26.8981818,61.16 26.4181818,61.3 25.7781818,61.5 C25.1381818,61.7 24.4781818,61.88 23.7981818,62.04 C23.1181818,62.2 22.4381818,62.34 21.7581818,62.46 C21.0781818,62.58 20.5381818,62.64 20.1381818,62.64 C19.0981818,62.64 17.9981818,62.26 16.8381818,61.5 C15.6781818,60.74 15.0981818,59.4 15.0981818,57.48 C15.2581818,56.84 15.7781818,56.08 16.6581818,55.2 C17.5381818,54.32 18.6181818,53.48 19.8981818,52.68 C20.2181818,52.68 20.3781818,52.84 20.3781818,53.16 C19.6581818,53.88 19.2981818,55 19.2981818,56.52 C19.2981818,57.88 19.7581818,58.94 20.6781818,59.7 C21.5981818,60.46 22.7781818,60.84 24.2181818,60.84 C26.0581818,60.84 27.9381818,60.24 29.8581818,59.04 C31.7781818,57.84 33.6581818,56.36 35.4981818,54.6 C35.8981818,54.2 36.2981818,54.18 36.6981818,54.54 C37.0981818,54.9 37.0981818,55.32 36.6981818,55.8 C35.3381818,56.76 33.8981818,57.84 32.3781818,59.04 C30.8581818,60.24 29.6581818,61.24 28.7781818,62.04 C26.8581818,63.72 24.3381818,65.72 21.2181818,68.04 C18.0981818,70.36 14.6181818,72.8 10.7781818,75.36 C10.4581818,75.52 10.2581818,75.7 10.1781818,75.9 C10.0981818,76.1 10.2981818,76.36 10.7781818,76.68 C14.7781818,79.32 18.7381818,81.84 22.6581818,84.24 C26.5781818,86.64 30.3181818,88.76 33.8781818,90.6 C37.4381818,92.44 40.7381818,93.9 43.7781818,94.98 C46.8181818,96.06 49.4181818,96.6 51.5781818,96.6 C55.1781818,96.6 58.4181818,95.62 61.2981818,93.66 C64.1781818,91.7 66.6181818,88.88 68.6181818,85.2 C68.9381818,84.96 69.1781818,85.04 69.3381818,85.44 Z" id="Path"></path>
                    <path d="M74.2581818,60 C72.8981818,61.84 71.2381818,63.5 69.2781818,64.98 C67.3181818,66.46 65.0981818,67.2 62.6181818,67.2 C61.2581818,67.2 59.9181818,66.86 58.5981818,66.18 C57.2781818,65.5 56.2181818,64.48 55.4181818,63.12 C54.8581818,64.4 54.1381818,65.86 53.2581818,67.5 C52.3781818,69.14 51.3381818,70.78 50.1381818,72.42 C48.9381818,74.06 47.5981818,75.56 46.1181818,76.92 C44.6381818,78.28 43.0581818,79.4 41.3781818,80.28 C39.9381818,80.92 38.7381818,81.24 37.7781818,81.24 C34.8981818,81.24 33.4581818,79.96 33.4581818,77.4 C33.4581818,75.96 33.7181818,74.48 34.2381818,72.96 C34.7581818,71.44 35.4181818,69.96 36.2181818,68.52 C37.0181818,67.08 37.8781818,65.72 38.7981818,64.44 C39.7181818,63.16 40.5781818,62.12 41.3781818,61.32 C43.0581818,59.48 44.9781818,57.92 47.1381818,56.64 C49.2981818,55.36 51.6181818,54.6 54.0981818,54.36 C54.2581818,53.72 54.4981818,52.98 54.8181818,52.14 C55.1381818,51.3 55.6981818,50.8 56.4981818,50.64 C56.8981818,50.56 57.2981818,50.48 57.6981818,50.4 C58.0981818,50.32 58.4581818,50.2 58.7781818,50.04 C59.0181818,49.88 59.2581818,49.86 59.4981818,49.98 C59.7381818,50.1 59.7781818,50.32 59.6181818,50.64 C59.0581818,51.52 58.6381818,52.64 58.3581818,54 C58.0781818,55.36 57.9381818,56.84 57.9381818,58.44 C57.9381818,60.68 58.3581818,62.52 59.1981818,63.96 C60.0381818,65.4 61.4981818,66.12 63.5781818,66.12 C65.6581818,66.12 67.5381818,65.44 69.2181818,64.08 C70.8981818,62.72 72.2981818,61.24 73.4181818,59.64 C73.5781818,59.24 73.8381818,59.12 74.1981818,59.28 C74.5581818,59.44 74.5781818,59.68 74.2581818,60 Z M54.4581818,60.84 C54.2981818,60.12 54.1781818,59.28 54.0981818,58.32 C54.0181818,57.36 53.9781818,56.44 53.9781818,55.56 C53.9781818,55.16 53.8181818,54.96 53.4981818,54.96 C52.6181818,54.96 51.6981818,55.26 50.7381818,55.86 C49.7781818,56.46 48.8181818,57.26 47.8581818,58.26 C46.8981818,59.26 45.9381818,60.4 44.9781818,61.68 C44.0181818,62.96 43.1381818,64.28 42.3381818,65.64 C41.2981818,67.4 40.3581818,69.3 39.5181818,71.34 C38.6781818,73.38 38.2981818,75.32 38.3781818,77.16 C38.3781818,77.72 38.4781818,78.24 38.6781818,78.72 C38.8781818,79.2 39.3381818,79.44 40.0581818,79.44 C41.4181818,79.44 42.8981818,78.68 44.4981818,77.16 C46.0981818,75.64 47.6181818,73.86 49.0581818,71.82 C50.4981818,69.78 51.7181818,67.72 52.7181818,65.64 C53.7181818,63.56 54.2981818,61.96 54.4581818,60.84 Z" id="Shape"></path>
                    <path d="M121.298182,2.16 C121.298182,3.28 120.858182,4.92 119.978182,7.08 C119.098182,9.24 117.838182,11.74 116.198182,14.58 C114.558182,17.42 112.558182,20.46 110.198182,23.7 C107.838182,26.94 105.158182,30.16 102.158182,33.36 C99.1581818,36.56 95.8581818,39.62 92.2581818,42.54 C88.6581818,45.46 84.8181818,48.04 80.7381818,50.28 C80.0181818,51.56 79.0181818,53.28 77.7381818,55.44 C76.4581818,57.6 75.1981818,59.88 73.9581818,62.28 C72.7181818,64.68 71.6381818,67.04 70.7181818,69.36 C69.7981818,71.68 69.3381818,73.64 69.3381818,75.24 C69.3381818,77.8 70.4981818,79.08 72.8181818,79.08 C74.8181818,79.08 76.8981818,78.52 79.0581818,77.4 C81.2181818,76.28 83.2781818,74.92 85.2381818,73.32 C87.1981818,71.72 89.0381818,70.02 90.7581818,68.22 C92.4781818,66.42 93.9381818,64.8 95.1381818,63.36 C95.6981818,62.8 96.0181818,62.66 96.0981818,62.94 C96.1781818,63.22 96.0581818,63.52 95.7381818,63.84 C94.2981818,65.6 92.5981818,67.48 90.6381818,69.48 C88.6781818,71.48 86.5981818,73.32 84.3981818,75 C82.1981818,76.68 79.8981818,78.08 77.4981818,79.2 C75.0981818,80.32 72.6981818,80.88 70.2981818,80.88 C68.2181818,80.88 66.7181818,80.38 65.7981818,79.38 C64.8781818,78.38 64.4181818,77.16 64.4181818,75.72 C64.4181818,74.28 65.0381818,72.22 66.2781818,69.54 C67.5181818,66.86 68.9781818,64.04 70.6581818,61.08 C72.3381818,58.12 74.0181818,55.32 75.6981818,52.68 C77.3781818,50.04 78.6181818,48.04 79.4181818,46.68 C80.7781818,44.36 82.1981818,41.94 83.6781818,39.42 C85.1581818,36.9 86.6181818,34.44 88.0581818,32.04 C89.4981818,29.64 90.8781818,27.34 92.1981818,25.14 C93.5181818,22.94 94.7381818,21 95.8581818,19.32 C97.2181818,17.24 98.6181818,15.28 100.058182,13.44 C101.498182,11.6 103.338182,9.76 105.578182,7.92 C108.618182,5.36 111.418182,3.4 113.978182,2.04 C116.538182,0.68 118.258182,0 119.138182,0 C119.778182,0 120.298182,0.18 120.698182,0.54 C121.098182,0.9 121.298182,1.44 121.298182,2.16 Z M115.898182,5.28 C115.898182,4 115.378182,3.36 114.338182,3.36 C113.938182,3.36 113.498182,3.48 113.018182,3.72 C112.538182,3.96 111.918182,4.46 111.158182,5.22 C110.398182,5.98 109.478182,7.04 108.398182,8.4 C107.318182,9.76 105.938182,11.52 104.258182,13.68 C103.618182,14.56 102.718182,15.84 101.558182,17.52 C100.398182,19.2 98.9181818,21.42 97.1181818,24.18 C95.3181818,26.94 93.1581818,30.34 90.6381818,34.38 C88.1181818,38.42 85.1381818,43.2 81.6981818,48.72 C86.4981818,46 90.9981818,42.7 95.1981818,38.82 C99.3981818,34.94 103.018182,30.96 106.058182,26.88 C109.098182,22.8 111.498182,18.84 113.258182,15 C115.018182,11.16 115.898182,7.92 115.898182,5.28 Z" id="Shape"></path>
                    <path d="M111.218182,37.92 C111.218182,38.88 110.798182,39.84 109.958182,40.8 C109.118182,41.76 108.178182,42.24 107.138182,42.24 C106.178182,42.24 105.698182,41.76 105.698182,40.8 C105.698182,39.76 106.078182,38.76 106.838182,37.8 C107.598182,36.84 108.538182,36.36 109.658182,36.36 C110.698182,36.36 111.218182,36.88 111.218182,37.92 Z M116.618182,64.68 C114.698182,67.16 112.498182,69.52 110.018182,71.76 C107.538182,74 105.258182,75.8 103.178182,77.16 C101.578182,78.2 99.9381818,79 98.2581818,79.56 C96.5781818,80.12 95.0581818,80.4 93.6981818,80.4 C93.2181818,80.4 92.6581818,80.36 92.0181818,80.28 C91.3781818,80.2 90.7981818,80 90.2781818,79.68 C89.7581818,79.36 89.3181818,78.94 88.9581818,78.42 C88.5981818,77.9 88.4181818,77.2 88.4181818,76.32 C88.4181818,75.28 88.8181818,73.86 89.6181818,72.06 C90.4181818,70.26 91.3581818,68.4 92.4381818,66.48 C93.5181818,64.56 94.5981818,62.72 95.6781818,60.96 C96.7581818,59.2 97.6181818,57.88 98.2581818,57 C98.6581818,56.36 99.3581818,55.82 100.358182,55.38 C101.358182,54.94 102.018182,54.72 102.338182,54.72 C102.738182,54.72 102.938182,54.84 102.938182,55.08 C102.938182,55.24 102.878182,55.48 102.758182,55.8 C102.638182,56.12 102.498182,56.36 102.338182,56.52 C101.298182,58.12 100.238182,59.88 99.1581818,61.8 C98.0781818,63.72 97.0981818,65.58 96.2181818,67.38 C95.3381818,69.18 94.6381818,70.84 94.1181818,72.36 C93.5981818,73.88 93.3381818,75.08 93.3381818,75.96 C93.3381818,76.92 93.5981818,77.62 94.1181818,78.06 C94.6381818,78.5 95.3381818,78.72 96.2181818,78.72 C97.8181818,78.72 99.5781818,78.18 101.498182,77.1 C103.418182,76.02 105.318182,74.72 107.198182,73.2 C109.078182,71.68 110.818182,70.08 112.418182,68.4 C114.018182,66.72 115.258182,65.28 116.138182,64.08 C116.538182,63.68 116.758182,63.58 116.798182,63.78 C116.838182,63.98 116.778182,64.28 116.618182,64.68 Z" id="Shape"></path>
                    <path d="M148.178182,64.92 C146.738182,66.92 145.078182,68.94 143.198182,70.98 C141.318182,73.02 139.318182,74.84 137.198182,76.44 C135.078182,78.04 132.918182,79.36 130.718182,80.4 C128.518182,81.44 126.378182,81.96 124.298182,81.96 C123.338182,81.96 122.458182,81.82 121.658182,81.54 C120.858182,81.26 120.458182,80.56 120.458182,79.44 C120.458182,78.32 120.858182,76.9 121.658182,75.18 C122.458182,73.46 123.398182,71.64 124.478182,69.72 C125.558182,67.8 126.678182,65.84 127.838182,63.84 C128.998182,61.84 129.938182,60 130.658182,58.32 C130.818182,57.92 130.838182,57.58 130.718182,57.3 C130.598182,57.02 130.338182,57 129.938182,57.24 C129.058182,57.8 128.018182,58.56 126.818182,59.52 C125.618182,60.48 124.398182,61.5 123.158182,62.58 C121.918182,63.66 120.718182,64.76 119.558182,65.88 C118.398182,67 117.458182,68 116.738182,68.88 C115.458182,70.88 114.358182,72.72 113.438182,74.4 C112.518182,76.08 111.378182,77.96 110.018182,80.04 C109.698182,80.52 109.458182,80.76 109.298182,80.76 C108.898182,80.76 108.558182,80.32 108.278182,79.44 C107.998182,78.56 107.858182,78 107.858182,77.76 C107.858182,77.04 108.358182,76.06 109.358182,74.82 C110.358182,73.58 111.458182,72.2 112.658182,70.68 C113.938182,68.12 115.258182,65.42 116.618182,62.58 C117.978182,59.74 119.138182,57.2 120.098182,54.96 C120.338182,54.56 120.698182,54.36 121.178182,54.36 C121.658182,54.36 122.098182,54.56 122.498182,54.96 C122.898182,55.36 123.098182,55.8 123.098182,56.28 C123.098182,56.6 122.518182,57.7 121.358182,59.58 C120.198182,61.46 119.058182,63.64 117.938182,66.12 C119.458182,64.76 121.118182,63.32 122.918182,61.8 C124.718182,60.28 126.438182,58.88 128.078182,57.6 C129.718182,56.32 131.158182,55.26 132.398182,54.42 C133.638182,53.58 134.498182,53.16 134.978182,53.16 C135.298182,53.16 135.598182,53.34 135.878182,53.7 C136.158182,54.06 136.298182,54.4 136.298182,54.72 C136.298182,55.04 136.098182,55.52 135.698182,56.16 C134.818182,57.44 133.738182,59.08 132.458182,61.08 C131.178182,63.08 129.958182,65.14 128.798182,67.26 C127.638182,69.38 126.658182,71.4 125.858182,73.32 C125.058182,75.24 124.658182,76.76 124.658182,77.88 C124.658182,78.84 124.858182,79.5 125.258182,79.86 C125.658182,80.22 126.298182,80.4 127.178182,80.4 C128.538182,80.4 130.138182,79.88 131.978182,78.84 C133.818182,77.8 135.718182,76.5 137.678182,74.94 C139.638182,73.38 141.498182,71.64 143.258182,69.72 C145.018182,67.8 146.458182,65.96 147.578182,64.2 C147.738182,63.96 147.978182,63.9 148.298182,64.02 C148.618182,64.14 148.578182,64.44 148.178182,64.92 Z" id="Path"></path>
                </g>
                <g id="inna-copy" transform="translate(39.0742, 51.66)">
                    <g id="Shape">
                        <use fill="black" fill-opacity="1" filter="url(#filter-2)" xlink:href="#path-1"></use>
                        <use fill="#FFFFFF" xlink:href="#path-1"></use>
                    </g>
                    <g id="Path">
                        <use fill="black" fill-opacity="1" filter="url(#filter-4)" xlink:href="#path-3"></use>
                        <use fill="#FFFFFF" xlink:href="#path-3"></use>
                    </g>
                    <g id="Path">
                        <use fill="black" fill-opacity="1" filter="url(#filter-6)" xlink:href="#path-5"></use>
                        <use fill="#FFFFFF" xlink:href="#path-5"></use>
                    </g>
                    <g id="Shape">
                        <use fill="black" fill-opacity="1" filter="url(#filter-8)" xlink:href="#path-7"></use>
                        <use fill="#FFFFFF" xlink:href="#path-7"></use>
                    </g>
                </g>
            </g>
        </g>
    </g>
</svg>