<svg width="26" height="26" viewBox="0 0 26 26" fill="none" xmlns="http://www.w3.org/2000/svg">
<path d="M23.2143 0H2.78571C1.24719 0 0 1.24719 0 2.78571V23.2143C0 24.7528 1.24719 26 2.78571 26H23.2143C24.7528 26 26 24.7528 26 23.2143V2.78571C26 1.24719 24.7528 0 23.2143 0ZM10.3371 13.3542C5.074 9.53451 5.12763 9.52488 3.71429 8.42487V6.96429C3.71429 6.19502 4.33788 5.57143 5.10714 5.57143H20.8929C21.6621 5.57143 22.2857 6.19502 22.2857 6.96429V8.42487C20.8713 9.52575 20.9257 9.53475 15.6629 13.3543C15.0535 13.7986 13.841 14.8702 13 14.8571C12.1583 14.8697 10.9475 13.7993 10.3371 13.3542ZM22.2857 10.7816V19.0357C22.2857 19.805 21.6621 20.4286 20.8929 20.4286H5.10714C4.33788 20.4286 3.71429 19.805 3.71429 19.0357V10.7816C4.52435 11.408 5.64856 12.2462 9.24526 14.8565C10.0672 15.4567 11.4492 16.7221 12.9998 16.7142C14.5602 16.722 15.9618 15.4351 16.7559 14.8556C20.3517 12.2461 21.4757 11.408 22.2857 10.7816Z" fill="#747474"/>
</svg>
